<svg width="138" height="40" viewBox="0 0 138 40" fill="none" xmlns="http://www.w3.org/2000/svg">
<rect x="0.5" y="0.5" width="137" height="39" rx="6.5" stroke="#353535"/>
<path d="M33.32 12.8H41.32V13.856H37.88V24H36.76V13.856H33.32V12.8ZM48.2031 17.568V16H49.2591V24H48.2031V22.432C47.4671 23.6053 46.3898 24.192 44.9711 24.192C43.8298 24.192 42.8538 23.7867 42.0431 22.976C41.2431 22.1653 40.8431 21.1733 40.8431 20C40.8431 18.8267 41.2431 17.8347 42.0431 17.024C42.8538 16.2133 43.8298 15.808 44.9711 15.808C46.3898 15.808 47.4671 16.3947 48.2031 17.568ZM42.8111 22.256C43.4191 22.864 44.1658 23.168 45.0511 23.168C45.9365 23.168 46.6831 22.864 47.2911 22.256C47.8991 21.6267 48.2031 20.8747 48.2031 20C48.2031 19.1147 47.8991 18.368 47.2911 17.76C46.6831 17.1413 45.9365 16.832 45.0511 16.832C44.1658 16.832 43.4191 17.1413 42.8111 17.76C42.2031 18.368 41.8991 19.1147 41.8991 20C41.8991 20.8747 42.2031 21.6267 42.8111 22.256ZM53.671 19.84L57.959 24H56.551L52.551 20.144V24H51.495V12.8H52.551V19.536L56.359 16H57.799L53.671 19.84ZM62.3004 15.808C63.495 15.808 64.4497 16.2293 65.1644 17.072C65.9004 17.904 66.2684 18.8907 66.2684 20.032C66.2684 20.0853 66.2577 20.2507 66.2364 20.528H59.2124C59.319 21.328 59.6604 21.968 60.2364 22.448C60.8124 22.928 61.5324 23.168 62.3964 23.168C63.6124 23.168 64.471 22.7147 64.9724 21.808L65.9004 22.352C65.5484 22.928 65.063 23.3813 64.4444 23.712C63.8364 24.032 63.1484 24.192 62.3804 24.192C61.1217 24.192 60.0977 23.7973 59.3084 23.008C58.519 22.2187 58.1244 21.216 58.1244 20C58.1244 18.7947 58.5137 17.7973 59.2924 17.008C60.071 16.208 61.0737 15.808 62.3004 15.808ZM62.3004 16.832C61.4684 16.832 60.7697 17.0773 60.2044 17.568C59.6497 18.0587 59.319 18.704 59.2124 19.504H65.1804C65.063 18.6507 64.7377 17.9947 64.2044 17.536C63.6497 17.0667 63.015 16.832 62.3004 16.832ZM78.8281 17.568V16H79.8841V24H78.8281V22.432C78.0921 23.6053 77.0148 24.192 75.5961 24.192C74.4548 24.192 73.4788 23.7867 72.6681 22.976C71.8681 22.1653 71.4681 21.1733 71.4681 20C71.4681 18.8267 71.8681 17.8347 72.6681 17.024C73.4788 16.2133 74.4548 15.808 75.5961 15.808C77.0148 15.808 78.0921 16.3947 78.8281 17.568ZM73.4361 22.256C74.0441 22.864 74.7908 23.168 75.6761 23.168C76.5615 23.168 77.3081 22.864 77.9161 22.256C78.5241 21.6267 78.8281 20.8747 78.8281 20C78.8281 19.1147 78.5241 18.368 77.9161 17.76C77.3081 17.1413 76.5615 16.832 75.6761 16.832C74.7908 16.832 74.0441 17.1413 73.4361 17.76C72.8281 18.368 72.5241 19.1147 72.5241 20C72.5241 20.8747 72.8281 21.6267 73.4361 22.256ZM90.408 15.808C91.5493 15.808 92.52 16.2133 93.32 17.024C94.1307 17.8347 94.536 18.8267 94.536 20C94.536 21.1733 94.1307 22.1653 93.32 22.976C92.52 23.7867 91.5493 24.192 90.408 24.192C88.9893 24.192 87.912 23.6053 87.176 22.432V24H86.12V12.8H87.176V17.568C87.912 16.3947 88.9893 15.808 90.408 15.808ZM88.088 22.256C88.696 22.864 89.4427 23.168 90.328 23.168C91.2133 23.168 91.96 22.864 92.568 22.256C93.176 21.6267 93.48 20.8747 93.48 20C93.48 19.1147 93.176 18.368 92.568 17.76C91.96 17.1413 91.2133 16.832 90.328 16.832C89.4427 16.832 88.696 17.1413 88.088 17.76C87.48 18.368 87.176 19.1147 87.176 20C87.176 20.8747 87.48 21.6267 88.088 22.256ZM97.3479 16V17.328C97.8385 16.3573 98.6812 15.872 99.8759 15.872V16.896C99.1079 16.896 98.4945 17.12 98.0359 17.568C97.5772 18.0053 97.3479 18.6667 97.3479 19.552V24H96.2919V16H97.3479ZM104.535 15.808C105.729 15.808 106.684 16.2293 107.399 17.072C108.135 17.904 108.503 18.8907 108.503 20.032C108.503 20.0853 108.492 20.2507 108.471 20.528H101.447C101.553 21.328 101.895 21.968 102.471 22.448C103.047 22.928 103.767 23.168 104.631 23.168C105.847 23.168 106.705 22.7147 107.207 21.808L108.135 22.352C107.783 22.928 107.297 23.3813 106.679 23.712C106.071 24.032 105.383 24.192 104.615 24.192C103.356 24.192 102.332 23.7973 101.543 23.008C100.753 22.2187 100.359 21.216 100.359 20C100.359 18.7947 100.748 17.7973 101.527 17.008C102.305 16.208 103.308 15.808 104.535 15.808ZM104.535 16.832C103.703 16.832 103.004 17.0773 102.439 17.568C101.884 18.0587 101.553 18.704 101.447 19.504H107.415C107.297 18.6507 106.972 17.9947 106.439 17.536C105.884 17.0667 105.249 16.832 104.535 16.832ZM117.062 17.568V16H118.119V24H117.062V22.432C116.327 23.6053 115.249 24.192 113.831 24.192C112.689 24.192 111.713 23.7867 110.903 22.976C110.103 22.1653 109.703 21.1733 109.703 20C109.703 18.8267 110.103 17.8347 110.903 17.024C111.713 16.2133 112.689 15.808 113.831 15.808C115.249 15.808 116.327 16.3947 117.062 17.568ZM111.671 22.256C112.279 22.864 113.025 23.168 113.911 23.168C114.796 23.168 115.543 22.864 116.151 22.256C116.759 21.6267 117.062 20.8747 117.062 20C117.062 19.1147 116.759 18.368 116.151 17.76C115.543 17.1413 114.796 16.832 113.911 16.832C113.025 16.832 112.279 17.1413 111.671 17.76C111.063 18.368 110.759 19.1147 110.759 20C110.759 20.8747 111.063 21.6267 111.671 22.256ZM122.53 19.84L126.818 24H125.41L121.41 20.144V24H120.354V12.8H121.41V19.536L125.218 16H126.658L122.53 19.84Z" fill="#FFC107"/>
<path d="M15.625 26.875H15.0625C14.6149 26.875 14.1857 26.6972 13.8693 26.3807C13.5528 26.0643 13.375 25.6351 13.375 25.1875V12.8125C13.375 12.3649 13.5528 11.9357 13.8693 11.6193C14.1857 11.3028 14.6149 11.125 15.0625 11.125H15.625C16.0726 11.125 16.5018 11.3028 16.8182 11.6193C17.1347 11.9357 17.3125 12.3649 17.3125 12.8125V25.1875C17.3125 25.6351 17.1347 26.0643 16.8182 26.3807C16.5018 26.6972 16.0726 26.875 15.625 26.875ZM15.0625 12.25C14.9133 12.25 14.7702 12.3093 14.6648 12.4148C14.5593 12.5202 14.5 12.6633 14.5 12.8125V25.1875C14.5 25.3367 14.5593 25.4798 14.6648 25.5852C14.7702 25.6907 14.9133 25.75 15.0625 25.75H15.625C15.7742 25.75 15.9173 25.6907 16.0227 25.5852C16.1282 25.4798 16.1875 25.3367 16.1875 25.1875V12.8125C16.1875 12.6633 16.1282 12.5202 16.0227 12.4148C15.9173 12.3093 15.7742 12.25 15.625 12.25H15.0625ZM22.9375 26.875H22.375C21.9274 26.875 21.4982 26.6972 21.1818 26.3807C20.8653 26.0643 20.6875 25.6351 20.6875 25.1875V12.8125C20.6875 12.3649 20.8653 11.9357 21.1818 11.6193C21.4982 11.3028 21.9274 11.125 22.375 11.125H22.9375C23.3851 11.125 23.8143 11.3028 24.1307 11.6193C24.4472 11.9357 24.625 12.3649 24.625 12.8125V25.1875C24.625 25.6351 24.4472 26.0643 24.1307 26.3807C23.8143 26.6972 23.3851 26.875 22.9375 26.875ZM22.375 12.25C22.2258 12.25 22.0827 12.3093 21.9773 12.4148C21.8718 12.5202 21.8125 12.6633 21.8125 12.8125V25.1875C21.8125 25.3367 21.8718 25.4798 21.9773 25.5852C22.0827 25.6907 22.2258 25.75 22.375 25.75H22.9375C23.0867 25.75 23.2298 25.6907 23.3352 25.5852C23.4407 25.4798 23.5 25.3367 23.5 25.1875V12.8125C23.5 12.6633 23.4407 12.5202 23.3352 12.4148C23.2298 12.3093 23.0867 12.25 22.9375 12.25H22.375Z" fill="#FFC107"/>
</svg>
