<svg width="40" height="40" viewBox="0 0 40 40" fill="none" xmlns="http://www.w3.org/2000/svg">
<rect width="40" height="40" rx="16" fill="#F00000"/>
<g clip-path="url(#clip0)">
<path d="M29.7473 19.5218C26.9322 17.3751 23.5618 16.2401 19.9998 16.2401C16.4378 16.2401 13.0673 17.3751 10.2522 19.5218C10.1172 19.6246 10.0273 19.7776 10.0054 19.9473C9.98355 20.117 10.0285 20.2879 10.1314 20.4229L12.4837 23.5067C12.5879 23.643 12.7396 23.7317 12.9092 23.7535C13.0789 23.7779 13.2499 23.7304 13.3848 23.6275C14.3772 22.8678 15.4853 22.2881 16.6756 21.9037C17.0124 21.7945 17.1975 21.4333 17.0895 21.0952L16.3002 18.6413C18.6925 18.032 21.3058 18.0307 23.6993 18.6413L22.91 21.0952C22.8008 21.4333 22.9872 21.7945 23.3239 21.9037C24.513 22.2881 25.6198 22.8678 26.6147 23.6275C26.7278 23.7124 26.8641 23.7599 27.0055 23.7599C27.0338 23.7599 27.062 23.7574 27.0903 23.7535C27.26 23.7304 27.413 23.643 27.5158 23.508L29.8682 20.4229C29.971 20.2879 30.0173 20.1157 29.9942 19.9473C29.9723 19.7776 29.8823 19.6246 29.7473 19.5218Z" fill="white"/>
</g>
<defs>
<clipPath id="clip0">
<rect width="20" height="20" fill="white" transform="translate(10 10)"/>
</clipPath>
</defs>
</svg>
