<svg width="20" height="20" viewBox="0 0 20 20" fill="none" xmlns="http://www.w3.org/2000/svg">
<path d="M16.4001 10.3294C16.4001 9.92942 16.0942 9.62354 15.6942 9.62354C15.2942 9.62354 14.9883 9.92942 14.9883 10.3294C14.9883 13.0824 12.753 15.3177 10.0001 15.3177C7.24716 15.3177 5.01186 13.0824 5.01186 10.3294C5.01186 9.92942 4.70598 9.62354 4.30598 9.62354C3.90598 9.62354 3.6001 9.92942 3.6001 10.3294C3.6001 13.6 6.04716 16.3529 9.29422 16.7059V18.5882H6.72951C6.32951 18.5882 6.02363 18.8941 6.02363 19.2941C6.02363 19.6941 6.32951 20 6.72951 20H13.2707C13.6707 20 13.9766 19.6941 13.9766 19.2941C13.9766 18.8941 13.6707 18.5882 13.2707 18.5882H10.706V16.7059C13.953 16.3529 16.4001 13.6 16.4001 10.3294Z" fill="#E5E5E5"/>
<path d="M10.0002 0C7.83551 0 6.0708 1.76471 6.0708 3.92941V10.3059C6.0708 12.4941 7.83551 14.2353 10.0002 14.2588C12.1649 14.2588 13.9296 12.4941 13.9296 10.3294V3.92941C13.9296 1.76471 12.1649 0 10.0002 0Z" fill="#CB942D"/>
</svg>
