<svg width="20" height="18" viewBox="0 0 20 18" fill="none" xmlns="http://www.w3.org/2000/svg">
<path d="M12.3901 14.5399H7.61029L7.27322 16.5814H4.83936V17.7533H15.1611V16.5814H12.7272L12.3901 14.5399Z" fill="#CB942D"/>
<path d="M7.90121 5.30138C8.2792 5.30138 8.58563 4.99496 8.58563 4.61697C8.58563 4.23898 8.2792 3.93256 7.90121 3.93256C7.52322 3.93256 7.2168 4.23898 7.2168 4.61697C7.2168 4.99496 7.52322 5.30138 7.90121 5.30138Z" fill="#E5E5E5"/>
<path d="M7.90121 9.68216C8.2792 9.68216 8.58563 9.37574 8.58563 8.99774C8.58563 8.61975 8.2792 8.31332 7.90121 8.31332C7.52322 8.31332 7.2168 8.61975 7.2168 8.99774C7.2168 9.37574 7.52322 9.68216 7.90121 9.68216Z" fill="#E5E5E5"/>
<path d="M12.0987 7.49175C12.4767 7.49175 12.7831 7.18533 12.7831 6.80734C12.7831 6.42935 12.4767 6.12292 12.0987 6.12292C11.7207 6.12292 11.4143 6.42935 11.4143 6.80734C11.4143 7.18533 11.7207 7.49175 12.0987 7.49175Z" fill="#E5E5E5"/>
<path d="M0 0.246674V13.368H20V0.246674H0ZM12.0988 8.66367C11.5983 8.66367 11.1438 8.46421 10.8095 8.14105L9.73379 8.70238C9.74926 8.79863 9.75754 8.89722 9.75754 8.99773C9.75754 10.0213 8.9248 10.854 7.90125 10.854C6.8777 10.854 6.04496 10.0213 6.04496 8.99773C6.04496 7.97417 6.8777 7.14144 7.90125 7.14144C8.40176 7.14144 8.85633 7.34089 9.19055 7.6641L10.2663 7.10277C10.2508 7.00652 10.2425 6.90792 10.2425 6.80738C10.2425 6.70687 10.2508 6.60828 10.2663 6.51203L9.19051 5.9507C8.85633 6.27386 8.40176 6.47332 7.90125 6.47332C6.87766 6.47332 6.04496 5.64058 6.04496 4.61703C6.04496 3.59347 6.8777 2.76074 7.90125 2.76074C8.9248 2.76074 9.75754 3.59347 9.75754 4.61703C9.75754 4.71757 9.74922 4.81617 9.73379 4.91242L10.8095 5.47374C11.1437 5.15054 11.5982 4.95109 12.0988 4.95109C13.1224 4.95109 13.9551 5.78382 13.9551 6.80738C13.9551 7.83093 13.1223 8.66367 12.0988 8.66367Z" fill="#E5E5E5"/>
</svg>
