<svg width="18" height="16" viewBox="0 0 18 16" fill="none" xmlns="http://www.w3.org/2000/svg">
<path d="M9 6.27734C10.6865 6.27734 12.0586 4.90527 12.0586 3.21875C12.0586 1.53223 10.6865 0.160156 9 0.160156C7.31348 0.160156 5.94141 1.53223 5.94141 3.21875C5.94141 4.90527 7.31348 6.27734 9 6.27734ZM9 1.21484C10.105 1.21484 11.0039 2.11379 11.0039 3.21875C11.0039 4.32371 10.105 5.22266 9 5.22266C7.89504 5.22266 6.99609 4.32371 6.99609 3.21875C6.99609 2.11379 7.89504 1.21484 9 1.21484Z" fill="#AB720A"/>
<path d="M15.1875 6.27734C16.2537 6.27734 17.1211 5.40993 17.1211 4.34375C17.1211 3.27757 16.2537 2.41016 15.1875 2.41016C14.1213 2.41016 13.2539 3.27757 13.2539 4.34375C13.2539 5.40993 14.1213 6.27734 15.1875 6.27734ZM15.1875 3.46484C15.6721 3.46484 16.0664 3.85912 16.0664 4.34375C16.0664 4.82838 15.6721 5.22266 15.1875 5.22266C14.7029 5.22266 14.3086 4.82838 14.3086 4.34375C14.3086 3.85912 14.7029 3.46484 15.1875 3.46484Z" fill="#AB720A"/>
<path d="M15.6129 7.47266H14.7973C13.8361 7.47266 13.0064 8.0405 12.6284 8.85612C11.85 8.0064 10.7319 7.47266 9.49145 7.47266H8.50859C7.26813 7.47266 6.15006 8.0064 5.37166 8.85612C4.99356 8.0405 4.16387 7.47266 3.20273 7.47266H2.38711C1.07086 7.47266 0 8.53705 0 9.84535V13.6848C0 14.2528 0.463852 14.7148 1.03402 14.7148H4.25879C4.31286 15.3441 4.84204 15.8398 5.48515 15.8398H12.5149C13.158 15.8398 13.6871 15.3441 13.7412 14.7148H16.9292C17.5197 14.7148 18 14.2364 18 13.6482V9.84535C18 8.53705 16.9291 7.47266 15.6129 7.47266ZM1.05469 9.84535C1.05469 9.1186 1.65241 8.52734 2.38711 8.52734H3.20273C3.93743 8.52734 4.53516 9.1186 4.53516 9.84535V10.2064C4.18054 11.1298 4.25391 11.6831 4.25391 13.6602H1.05469V9.84535ZM12.6914 14.6086C12.6914 14.706 12.6122 14.7852 12.5149 14.7852H5.48511C5.38777 14.7852 5.30859 14.7059 5.30859 14.6086V11.7273C5.30859 9.96284 6.74409 8.52734 8.50855 8.52734H9.49141C11.2559 8.52734 12.6914 9.96284 12.6914 11.7273V14.6086ZM16.9453 13.6482C16.9453 13.6664 17.1419 13.6602 13.7461 13.6602C13.7461 11.6685 13.8189 11.1283 13.4648 10.2064V9.84535C13.4648 9.1186 14.0626 8.52734 14.7973 8.52734H15.6129C16.3476 8.52734 16.9453 9.1186 16.9453 9.84535V13.6482Z" fill="#AB720A"/>
<path d="M2.8125 6.27734C3.87868 6.27734 4.74609 5.40993 4.74609 4.34375C4.74609 3.27757 3.87868 2.41016 2.8125 2.41016C1.74632 2.41016 0.878906 3.27757 0.878906 4.34375C0.878906 5.40993 1.74632 6.27734 2.8125 6.27734ZM2.8125 3.46484C3.29713 3.46484 3.69141 3.85912 3.69141 4.34375C3.69141 4.82838 3.29713 5.22266 2.8125 5.22266C2.32787 5.22266 1.93359 4.82838 1.93359 4.34375C1.93359 3.85912 2.32787 3.46484 2.8125 3.46484Z" fill="#AB720A"/>
</svg>
